<svg width="96" height="26" viewBox="0 0 96 26" fill="none" xmlns="http://www.w3.org/2000/svg">
<path d="M22.5507 7.15924C21.7207 6.58924 20.8607 6.34924 20.0207 6.16924C19.4707 6.05924 18.7807 5.91923 18.2307 5.93923H18.2007C18.1907 5.62923 18.1607 5.31923 18.1307 4.99923C18.0307 4.18923 17.8707 3.36924 17.5607 2.53924C17.3907 2.12924 17.1907 1.70926 16.9007 1.30926C16.6107 0.90926 16.2007 0.519251 15.6807 0.269251C15.1607 0.00925097 14.5307 -0.05076 14.0007 0.03924C13.4607 0.12924 13.0007 0.339249 12.6007 0.579249C11.8107 1.06925 11.2207 1.68925 10.7107 2.32925C10.3407 2.78925 10.0207 3.25925 9.72069 3.73925C9.66069 3.70925 9.6007 3.66925 9.5407 3.63925C8.7907 3.26925 8.01069 2.93923 7.15069 2.71923C6.72069 2.60923 6.28071 2.52925 5.80071 2.51925C5.33071 2.49925 4.8207 2.53924 4.2907 2.72924C3.7707 2.90924 3.25072 3.28926 2.93072 3.77926C2.60072 4.26926 2.4607 4.81924 2.4107 5.31924C2.3307 6.31924 2.55073 7.19925 2.82073 8.01925C3.00073 8.55925 3.22068 9.21923 3.52068 9.68923C3.52068 9.70923 3.54072 9.71925 3.56072 9.73925C3.33072 9.88925 3.09071 10.0492 2.86071 10.2192C2.21071 10.7092 1.58068 11.2592 1.02068 11.9392C0.750682 12.2892 0.490702 12.6792 0.290702 13.1292C0.090702 13.5792 -0.0392663 14.1293 0.0107337 14.7093C0.0507337 15.2893 0.300687 15.8692 0.650687 16.2892C1.00069 16.7092 1.41073 17.0092 1.82073 17.2292C2.64073 17.6692 3.47068 17.8692 4.27068 17.9992C4.82068 18.0892 5.37071 18.1392 5.92071 18.1592C5.92071 18.2092 5.92071 18.2492 5.92071 18.2992C5.97071 19.1392 6.08073 19.9792 6.32073 20.8292C6.44073 21.2492 6.59073 21.6792 6.82073 22.1092C7.04073 22.5292 7.33072 22.9492 7.75072 23.3192C8.17072 23.6792 8.75069 23.9392 9.34069 23.9692C9.93069 24.0092 10.4707 23.8593 10.9207 23.6493C11.8207 23.2093 12.4707 22.5892 13.0407 21.9392C13.4107 21.5192 13.8507 21.0093 14.1207 20.5193C14.3807 20.6493 14.6407 20.7792 14.9007 20.8892C15.6507 21.2092 16.4407 21.4792 17.3107 21.6292C17.7507 21.6892 18.2107 21.7192 18.7007 21.6692C19.1907 21.6192 19.7307 21.4592 20.2107 21.1292C20.6907 20.7992 21.0607 20.2993 21.2507 19.7793C21.4407 19.2593 21.4907 18.7592 21.4807 18.2992C21.4507 17.3692 21.2107 16.5493 20.9207 15.7793C20.7207 15.2593 20.4907 14.7692 20.2507 14.2992C20.3207 14.2592 20.3807 14.2192 20.4507 14.1692C21.1507 13.7092 21.8207 13.1892 22.4307 12.5492C22.7407 12.2292 23.0307 11.8892 23.2807 11.4792C23.5307 11.0792 23.7607 10.6092 23.8507 10.0692C23.9507 9.52924 23.8907 8.88925 23.6207 8.35925C23.3607 7.82925 22.9607 7.42925 22.5507 7.13925V7.15924ZM11.6507 3.60925C12.1007 3.02925 12.6107 2.50924 13.1707 2.12924C13.4507 1.94924 13.7407 1.79924 14.0107 1.72924C14.2907 1.65924 14.5407 1.65924 14.7607 1.72924C14.9807 1.80924 15.1807 1.95925 15.3607 2.17925C15.5407 2.39925 15.6807 2.68925 15.8007 2.98925C16.0407 3.59925 16.1607 4.30926 16.2107 5.02926C16.2707 5.74926 16.2507 6.47925 16.1907 7.20925C16.1507 7.66925 16.0907 8.17925 16.0707 8.67925C15.2907 7.86925 14.4707 7.08926 13.6007 6.36926C12.7807 5.68926 11.9107 5.04924 11.0007 4.47924C11.2007 4.16924 11.4207 3.87926 11.6407 3.58926L11.6507 3.60925ZM6.22069 13.3792C6.04069 14.4492 5.92068 15.5393 5.89068 16.6493C5.55068 16.6293 5.21072 16.5892 4.87072 16.5392C4.15072 16.4292 3.44068 16.2493 2.83068 15.9593C2.53068 15.8093 2.26072 15.6293 2.06072 15.4293C1.86072 15.2293 1.74073 14.9993 1.69073 14.7693C1.65073 14.5393 1.69069 14.2893 1.78069 14.0193C1.88069 13.7493 2.06073 13.4892 2.26073 13.2292C2.67073 12.7092 3.22072 12.2592 3.81072 11.8492C4.40072 11.4392 5.04074 11.0893 5.70074 10.7693C6.08074 10.5893 6.51071 10.3992 6.92071 10.1992C6.62071 11.2392 6.38074 12.2992 6.20074 13.3792H6.22069ZM4.88073 8.94924C4.88073 8.94924 4.81068 8.98924 4.77068 9.00924C4.59068 8.56924 4.31072 8.07924 4.18072 7.66924C4.06072 7.31924 3.96069 6.96926 3.90069 6.61926C3.83069 6.26926 3.80073 5.91926 3.82073 5.58926C3.83073 5.25926 3.9007 4.94925 4.0407 4.70925C4.1707 4.46925 4.37072 4.27923 4.62072 4.15924C5.13072 3.90924 5.85069 3.93925 6.53069 4.07925C7.22069 4.22925 7.91068 4.48926 8.58068 4.80926C8.71068 4.86926 8.84069 4.93923 8.97069 4.99923C8.47069 5.95923 8.04071 6.93924 7.67071 7.94924C7.45071 7.93924 7.21073 7.96924 6.94073 8.03924C6.26073 8.20924 5.49073 8.60923 4.88073 8.93923V8.94924ZM7.58068 14.0392C7.80068 12.5392 8.15073 11.0592 8.63073 9.60925C9.07073 8.26925 9.61068 6.96925 10.2707 5.73925C11.0007 6.18925 11.6907 6.68924 12.3707 7.22924C13.5507 8.16924 14.6607 9.21924 15.6607 10.3492C16.6207 11.4192 17.4907 12.5692 18.2307 13.7892C17.4807 14.1892 16.7107 14.5392 15.9107 14.8592C14.5007 15.4092 13.0507 15.8492 11.5707 16.1592C10.1707 16.4492 8.75069 16.6392 7.34069 16.6692C7.37069 15.7892 7.45068 14.8993 7.58068 14.0293V14.0392ZM12.0407 20.9293C11.8007 21.2093 11.5507 21.4692 11.2807 21.6992C11.0207 21.9392 10.7307 22.1293 10.4407 22.2793C10.1507 22.4293 9.85073 22.5293 9.57073 22.5293C9.29073 22.5293 9.04071 22.4592 8.80071 22.2992C8.33071 21.9792 8.00069 21.3393 7.78069 20.6793C7.56069 19.9993 7.45073 19.2693 7.38073 18.5293C7.38073 18.4093 7.37071 18.2892 7.36071 18.1692C8.43071 18.1292 9.48068 18.0093 10.5207 17.8393C10.6207 18.0393 10.7707 18.2392 10.9707 18.4392C11.4607 18.9392 12.1807 19.4093 12.7807 19.7793C12.8107 19.7893 12.8307 19.8092 12.8607 19.8292C12.5907 20.1892 12.3307 20.6392 12.0607 20.9392L12.0407 20.9293ZM19.7707 18.9893C19.6907 19.2693 19.5607 19.4892 19.3807 19.6392C19.2007 19.7892 18.9707 19.8893 18.6907 19.9293C18.4107 19.9793 18.0907 19.9592 17.7707 19.9092C17.1207 19.8092 16.4507 19.5592 15.8007 19.2492C15.1607 18.9392 14.5307 18.5592 13.9307 18.1392C13.5807 17.8992 13.2007 17.6192 12.8207 17.3592C13.9007 17.0892 14.9707 16.7693 16.0107 16.3693C17.0007 15.9993 17.9707 15.5692 18.9107 15.0692C19.0607 15.3692 19.1907 15.6793 19.3207 15.9893C19.5907 16.6693 19.7807 17.3792 19.8407 18.0492C19.8607 18.3792 19.8407 18.7093 19.7607 18.9893H19.7707ZM22.4407 9.66924C22.4007 10.2392 22.0107 10.8493 21.5507 11.3693C21.0807 11.8993 20.5007 12.3692 19.8907 12.7892C19.7607 12.8792 19.6307 12.9592 19.5007 13.0492C18.9207 12.1192 18.2807 11.2492 17.6007 10.4092C17.7507 10.2192 17.8607 9.95926 17.9507 9.64926C18.1407 8.97926 18.1807 8.10923 18.2007 7.40924V7.37924C18.6707 7.43924 19.2107 7.44926 19.6307 7.52926C19.9907 7.59926 20.3407 7.68926 20.6707 7.80926C21.0107 7.91926 21.3207 8.06923 21.6007 8.24923C21.8707 8.42923 22.1107 8.63924 22.2507 8.87924C22.4007 9.11924 22.4607 9.37923 22.4407 9.65924V9.66924Z" fill="#3B82F6"/>
<path d="M39.3007 12.2592C39.3007 14.0192 38.9907 15.4892 38.3707 16.6792C37.7507 17.8692 36.8707 18.7692 35.7207 19.3592C34.5707 19.9592 33.2007 20.2492 31.6107 20.2492H27.2407V4.68921H32.0007C33.5107 4.68921 34.8107 4.97923 35.9107 5.55923C37.0007 6.13923 37.8407 6.98921 38.4207 8.09921C39.0007 9.20921 39.3007 10.5992 39.3007 12.2492V12.2592ZM36.5207 12.3492C36.5207 11.1392 36.3407 10.1492 35.9807 9.35922C35.6207 8.56922 35.1007 7.98922 34.4007 7.60922C33.7107 7.22922 32.8507 7.02924 31.8307 7.02924H29.9107V17.9092H31.4807C33.1707 17.9092 34.4307 17.4492 35.2607 16.5292C36.0907 15.6092 36.5107 14.2192 36.5107 12.3592L36.5207 12.3492Z" fill="white"/>
<path d="M46.8007 8.22922C48.1907 8.22922 49.2407 8.56923 49.9407 9.23923C50.6407 9.90923 51.0007 10.9392 51.0007 12.3192V20.2492H49.1407L48.6407 18.6192H48.5607C48.2407 19.0392 47.9207 19.3892 47.5807 19.6692C47.2407 19.9492 46.8507 20.1492 46.4107 20.2792C45.9707 20.4092 45.4407 20.4792 44.8207 20.4792C44.1607 20.4792 43.5707 20.3492 43.0407 20.0892C42.5107 19.8292 42.1007 19.4292 41.7907 18.8892C41.4907 18.3492 41.3407 17.6692 41.3407 16.8392C41.3407 15.6292 41.7707 14.7092 42.6307 14.0792C43.4907 13.4492 44.7807 13.0992 46.5207 13.0392L48.4007 12.9692V12.4692C48.4007 11.6592 48.2307 11.0892 47.8807 10.7692C47.5407 10.4492 47.0607 10.2892 46.4607 10.2892C45.9207 10.2892 45.3907 10.3792 44.8607 10.5592C44.3307 10.7392 43.8207 10.9492 43.3207 11.1792L42.5407 9.25922C43.0907 8.93922 43.7307 8.68921 44.4507 8.49921C45.1707 8.30921 45.9507 8.21921 46.7907 8.21921L46.8007 8.22922ZM47.0507 14.7292C45.9207 14.7892 45.1407 14.9892 44.7007 15.3292C44.2607 15.6692 44.0407 16.1592 44.0407 16.7792C44.0407 17.3292 44.2007 17.7392 44.5107 18.0092C44.8307 18.2792 45.2307 18.4092 45.7307 18.4092C46.4907 18.4092 47.1207 18.1792 47.6407 17.7092C48.1607 17.2392 48.4107 16.5692 48.4107 15.6792V14.6792L47.0507 14.7192V14.7292Z" fill="white"/>
<path d="M58.8807 20.4792C57.8407 20.4792 56.9107 20.2692 56.1207 19.8392C55.3207 19.4092 54.7007 18.7492 54.2507 17.8592C53.8007 16.9692 53.5807 15.8192 53.5807 14.4292C53.5807 13.0392 53.8207 11.7992 54.3007 10.8892C54.7807 9.97922 55.4307 9.30921 56.2607 8.87921C57.0807 8.44921 58.0207 8.23923 59.0607 8.23923C59.6807 8.23923 60.2707 8.30921 60.8307 8.43921C61.3907 8.56921 61.8707 8.74923 62.2707 8.95923L61.4907 11.1192C61.1207 10.9592 60.7207 10.8192 60.2907 10.6892C59.8607 10.5692 59.4407 10.4992 59.0307 10.4992C58.4207 10.4992 57.9107 10.6492 57.4907 10.9392C57.0707 11.2292 56.7607 11.6592 56.5507 12.2392C56.3407 12.8092 56.2407 13.5392 56.2407 14.4092C56.2407 15.2792 56.3507 15.9492 56.5607 16.5092C56.7707 17.0692 57.0807 17.4892 57.4907 17.7692C57.9007 18.0492 58.3907 18.1992 58.9607 18.1992C59.5307 18.1992 60.1007 18.1192 60.6007 17.9692C61.1007 17.8192 61.5707 17.6192 62.0107 17.3692V19.6792C61.6007 19.9292 61.1407 20.1192 60.6407 20.2692C60.1407 20.4192 59.5407 20.4892 58.8607 20.4892L58.8807 20.4792Z" fill="white"/>
<path d="M70.3307 8.22922C70.5407 8.22922 70.7607 8.23922 71.0007 8.25922C71.2407 8.27922 71.4407 8.30922 71.5907 8.35922L71.3207 10.9292C71.1507 10.8992 70.9707 10.8692 70.7507 10.8392C70.5407 10.8092 70.3107 10.7992 70.0607 10.7992C69.7007 10.7992 69.3507 10.8692 69.0007 10.9992C68.6507 11.1292 68.3307 11.3292 68.0507 11.6092C67.7707 11.8892 67.5507 12.2292 67.3807 12.6492C67.2107 13.0692 67.1307 13.5592 67.1307 14.1392V20.2592H64.5107V8.44922H66.5307L66.9007 10.4992H67.0207C67.2407 10.0792 67.5207 9.68923 67.8507 9.33923C68.1807 8.98923 68.5507 8.71923 68.9707 8.51923C69.3907 8.31923 69.8407 8.22922 70.3207 8.22922H70.3307Z" fill="white"/>
<path d="M83.1307 14.3292C83.1307 15.2992 83.0107 16.1692 82.7607 16.9292C82.5107 17.6892 82.1607 18.3392 81.7007 18.8692C81.2407 19.3992 80.6807 19.7992 80.0107 20.0692C79.3407 20.3392 78.6007 20.4692 77.7707 20.4692C77.0007 20.4692 76.2907 20.3392 75.6507 20.0692C75.0007 19.7992 74.4507 19.3992 73.9807 18.8692C73.5107 18.3392 73.1507 17.6892 72.8807 16.9292C72.6107 16.1692 72.4807 15.2992 72.4807 14.3292C72.4807 13.0092 72.7007 11.8992 73.1307 10.9992C73.5607 10.0992 74.1807 9.40921 74.9707 8.93921C75.7707 8.46921 76.7207 8.22922 77.8407 8.22922C78.8807 8.22922 79.8007 8.46921 80.5907 8.93921C81.3807 9.40921 82.0007 10.0992 82.4607 10.9992C82.9107 11.8992 83.1407 13.0092 83.1407 14.3292H83.1307ZM75.1507 14.3292C75.1507 15.1592 75.2407 15.8692 75.4307 16.4692C75.6207 17.0692 75.9007 17.5192 76.3007 17.8392C76.6907 18.1592 77.2007 18.3192 77.8107 18.3192C78.4207 18.3192 78.9307 18.1592 79.3307 17.8392C79.7207 17.5192 80.0107 17.0592 80.1907 16.4692C80.3707 15.8692 80.4607 15.1592 80.4607 14.3292C80.4607 13.4992 80.3707 12.7792 80.1807 12.1892C79.9907 11.6092 79.7107 11.1592 79.3207 10.8492C78.9407 10.5392 78.4307 10.3792 77.7907 10.3792C76.8707 10.3792 76.2007 10.7292 75.7807 11.4192C75.3607 12.1092 75.1507 13.0792 75.1507 14.3292Z" fill="white"/>
<path d="M92.8407 20.4992C92.8407 20.2192 92.8407 19.9192 92.8607 19.5892C92.8807 19.2592 92.9007 18.9692 92.9407 18.7092H92.8207C92.5307 19.1892 92.1207 19.5992 91.5907 19.9492C91.0607 20.2992 90.3707 20.4692 89.5207 20.4692C88.2407 20.4692 87.2007 19.9492 86.4007 18.9192C85.6007 17.8892 85.1907 16.3692 85.1907 14.3592C85.1907 13.0092 85.3807 11.8792 85.7507 10.9692C86.1207 10.0592 86.6407 9.37921 87.3107 8.90921C87.9807 8.44921 88.7407 8.20923 89.5907 8.20923C90.4407 8.20923 91.1307 8.37923 91.6507 8.70923C92.1707 9.03923 92.5907 9.46921 92.9107 9.96921H92.9907L93.2807 8.41922H95.4707V25.4692H92.8507V20.4792L92.8407 20.4992ZM90.3707 18.2792C91.0007 18.2792 91.5107 18.1492 91.8907 17.8992C92.2707 17.6492 92.5407 17.2592 92.7007 16.7292C92.8607 16.1992 92.9507 15.5592 92.9707 14.7892V14.3492C92.9707 13.0692 92.7807 12.0992 92.4007 11.4292C92.0207 10.7592 91.3207 10.4292 90.3107 10.4292C89.4907 10.4292 88.8707 10.7792 88.4807 11.4892C88.0807 12.1992 87.8807 13.1692 87.8807 14.4192C87.8807 15.6692 88.0807 16.6292 88.4907 17.2892C88.9007 17.9492 89.5207 18.2792 90.3807 18.2792H90.3707Z" fill="white"/>
</svg>
